<svg xmlns="http://www.w3.org/2000/svg" viewBox="0 0 387 180" aria-hidden="true">
  <g fill="none">
    <path d="M0 0h387v180H0z">
      <animate id="a" attributeName="visibility" begin="0;a.end" dur="8s" from="hide" to="hide"/>
    </path>
    <path fill="#1F36C7" d="M40.36 123.822c.385 2.261.497 5.134.683 7.453.674.33 7.069-.517 7.107-.799.236-1.769.256-3.609.678-5.806.422-2.198 4.372-2.004 3.605.18-1.781 5.068-.827 12.307-.346 13.653s1.948 1.682 2.926 1.008c.977-.673 1.916-2.18 2.111-2.86.054-2.006.594-4.868 2.218-4.868 1.137 0 1.679 2.541.865 4.762 0 2.65.863 3.257 1.996 3.21 1.134-.046 2.152-1.143 2.54-1.96.032-.112.062-.216.087-.309.092-.346.183-.7.27-1.047l.13-.516c.274-1.1.51-2.068.664-2.462.223-.58.824-.994 1.306-.95.243.023.316.476.392.85.272 1.338.654 2.703 1.085 2.703.76 0 3.271-4.817 4.73-4.817 1.788 0 2.185 7.85 4.618 7.85.799 0 2.14-1.068 2.367-2.238.387-1.993 1.981-5.282 4.099-5.66 1.226-.22 1.831 1.006 2.075.526.128-1.87.407-6.417.747-8.244.201-.673 2.379-.037 2.341.65-.23 4.128-.247 8.913.18 11.3.428 2.386 1.557 5.498 3.291 4.083 2.015-1.644 2.041-7.41 2.719-8.244.396-.3 1.706.162 1.728.62.289 1.26-.674 4.443-.687 5.438-.016 1.274 1.153 1.326 2.967-.295.963-.862 2.075-2.508 2.774-3.88.616-1.212.989-2.163 1.491-1.914.503.25.678.476.801.945.18.684.19 1.559.174 2.448l-.008.382-.004.19-.009.38c-.037 1.88.033 3.543 1.601 3.254 1.922-.353 4.113-4.718 4.382-5.505.269-.787-.551-1.562.245-2.036s1.855-.029 2.549.501c.826.631 1.714 1.661 2.256 2.627.542.965.827 2.397.86 3.694.022.822 2.174-.344 2.556-2.023.278-1.222.413-3.826 1.036-6.62-.55-.039-4.41.065-3.102-1.734.318-.437 1.892-.378 3.336-.42.237-.79.718-2.809 1.29-3.92.205-.398 1.761-.12 1.875.431.116.558-.264 2.94-.342 3.531 1.147.042 2.234-.199 3.323.17 1.012.342 1.008 1.611-.255 1.826-1.13.193-2.346.043-3.493.085-.415 1.838-.962 5.001-.74 7.022.222 2.021 1.237 2.99 1.765 3.107.484.108.884-.136 1.362-.602l.142-.142c.06-.06.119-.127.178-.195.423-.533.725-1.409.828-1.83.482-1.966 1.963-4.957 3.998-5.162 1.284-.13 1.922 1.436 2.253 1.18.261-.203.123-.937.328-1.19.299-.372 1.934-.05 1.967.786.044 1.101.144 2.171.317 3.362.173 1.191.511 4.46 2.539 3.791.287-.095.929-.617 1.161-.944.131-.442.253-.852.337-1.154.092-.346.183-.7.27-1.047l.407-1.624c.155-.61.287-1.1.386-1.354.223-.58.825-.994 1.306-.949.244.023.316.476.392.85.272 1.338.655 2.702 1.085 2.702.76 0 3.271-4.817 4.731-4.817 1.788 0 2.003 7.578 4.436 7.578.883 0 1.76-1.367 2.112-1.84.353-.473 1.033.586.651 1.646-.383 1.06-2.057 3.602-3.409 3.602-1.04 0-1.706-1.255-2.314-2.617l-.226-.514c-.636-1.457-1.25-2.874-2.224-2.874-1.57 0-6.527 6.1-7.873 5.96-.542-.057-.769-.46-.712-1.002l.001-.01c-.937.602-1.866 1.248-2.945.881-1.08-.366-1.733-1.803-1.93-2.33-.197-.527-.406-.538-.611-.21-.737 1.18-1.551 1.826-2.5 2.297-.948.47-2.092.355-2.555.175-.594-.232-1.016-.725-1.287-1.249a2.88 2.88 0 0 1-.181-.433c-.56.773-1.09 1.702-2.923 1.912-1.833.21-3.332-1.605-3.787-2.93-.171-.499-.352-.528-.508-.362a15.233 15.233 0 0 1-2.317 2.063c-1.045.758-2.07 1.154-3.367 1.286-1.297.131-2.522-.252-3.064-.922-.542-.67-.496-1.26.009-1.909.504-.648.979.462 2.468.126 1.49-.337 1.445-3.324.126-4.59-.484-.466-.808-.423-1.119.036-1.445 2.634-2.88 4.523-5.216 6.477-.853.54-1.674.752-2.335.462-1.445-1.19-.845-4.538-1.716-4.558-.872-.02-3.4 4.11-5.01 4.56-1.609.45-2.272-.273-2.618-.79-.346-.517-.435-1.057-.845-.755-.815.602-2.605 2.08-3.993 1.632-1.387-.447-2.296-2.129-2.503-2.656-.208-.527-.485-.229-.704.13-.737 1.204-1.604 1.877-2.574 2.368-.971.491-2.172.434-2.659.254-.626-.23-1.07-.724-1.355-1.249-.11-.202-.146-1.086-.199-1.299-.612 1.238-2.505 2.652-3.227 2.652-1.04 0-1.706-1.255-2.314-2.617l-.225-.514c-.636-1.457-1.251-2.874-2.225-2.874-1.569 0-6.526 6.1-7.873 5.96-.541-.057-.769-.46-.712-1.002a5.25 5.25 0 0 1 .108-.587c-1.007.888-1.834 1.582-2.7 1.582-2.597 0-2.817-3.822-3.482-3.19-.464.44-1.519 1.937-2.495 2.618-.975.68-2.329.736-3.329.574-1-.163-2.148-.718-2.806-2.454-.658-1.737-.956-5.723-.921-6.28.034-.559-7.113.495-7.055 1.26.058.764-.061 4.505-.516 6.782-.242 1.215-3.521 1.346-3.31-.274.445-5.767 1.215-11.202-.303-16.665-.447-1.61 3.079-2.156 3.321-.73Zm44.625 9.707c-.991.687-1.775 2.703-1.968 3.711-.194 1.008-.192 2.932 1.073 2.758 1.264-.174 2.06-1.285 2.481-2.539.421-1.254.385-2.976.105-3.526-.281-.55-1.161-.77-1.691-.404Zm45.861.791c-.939.69-1.403 1.835-1.668 2.843-.265 1.008-.136 2.92 1.104 2.764 1.24-.155 1.918-1.416 2.16-2.19.242-.775.369-2.025.11-2.833-.259-.808-1.28-.897-1.706-.584ZM59.8 123.248c.921 0 1.6.593 1.677 1.46.108 1.247-.756 2.6-1.943 2.6-1.034 0-1.56-.735-1.626-1.627-.102-1.355.865-2.433 1.892-2.433Zm213.738 1.722c-1.78 5.07-1.448 13.291-.603 14.352.844 1.061 4.59.39 6.2-.379 1.611-.768 1.917-1.49 2.111-2.17.055-2.007.595-4.869 2.219-4.869 1.137 0 1.679 2.541.864 4.762 0 2.65.863 3.257 1.997 3.211 1.134-.047 2.152-1.144 2.539-1.962l.088-.308c.438-1.646.84-3.45 1.064-4.025.223-.58.824-.994 1.305-.949.244.023.317.476.392.85.273 1.338.537 2.702.968 2.702.76 0 3.006-4.779 4.466-4.779 1.523 0 1.518 4.047 2.25 4.658.732.612 4.011-4.817 5.47-4.817 1.909 0 2.194 6.922 2.468 7.705.274.782.98.775 1.756.332 1.555-.886 1.725-1.833 1.92-2.514.054-2.006.595-4.868 2.218-4.868 1.138 0 1.68 2.541.865 4.762 0 2.65 1.156 3.245 1.997 3.211.84-.034 1.452-.663 1.945-1.46a7.162 7.162 0 0 0 .92-2.198c.278-1.22.414-3.826 1.037-6.62-.551-.038-4.41.065-3.102-1.734.317-.437 1.891-.378 3.336-.42.237-.79.718-2.809 1.29-3.92.204-.398 1.76-.119 1.874.431.116.558-.264 2.94-.341 3.531 1.147.043 2.233-.199 3.323.17 1.011.342 1.008 1.611-.255 1.826-1.131.193-2.346.043-3.494.086-.415 1.837-.961 5-.74 7.021.222 2.021 1.124 3.054 1.766 3.33.759.328 1.69.164 2.375-.276-.086-.344-.233-.886-.233-1.46 0-3.789 2.436-6.982 4.546-6.982 1.678 0 2.652 2.22 2.652 3.683 0 1.73-1.463 3.14-3.625 4.491.38.377 1.08.65 1.678.65 2.07 0 3.69-1.907 4.512-3.965.822-2.058 2.076-4.367 3.954-4.703 1.227-.219 1.831 1.007 2.075.526.128-1.869.407-6.416.747-8.243.201-.673 2.379-.038 2.341.65-.23 4.128-.247 8.913.18 11.3.428 2.386 1.258 4.87 3.291 3.935.593-.273 1.046-.786 1.302-1.043.303-.304.828.848.381 1.57-.739 1.19-2.879 2.588-4.39 2.14-1.51-.447-2.296-2.129-2.503-2.656-.208-.527-.485-.23-.704.128-.737 1.206-1.604 1.88-2.574 2.37-.971.491-2.172.434-2.659.254-.626-.232-.987-.63-1.265-1.159a3.876 3.876 0 0 1-.392-1.193c-.041-.312-.218-.572-.536-.259-1.248 1.232-2.736 2.53-5.654 2.511-.871 0-1.788-.359-2.544-1.226-.906.693-2.049 1.306-3.458 1.367-1.759.077-3.224-1.407-3.709-2.722-.281-.76-.927.606-1.552 1.281-.625.674-1.517 1.414-2.743 1.414-2.597 0-2.841-3.847-3.481-3.19-.997 1.02-3.941 3.434-5.528 3.241-2.205-.269-.646-6.124-2.637-6.124-1.569 0-4.749 6.217-6.096 6.078-.541-.057-.768-.46-.711-1.002.017-.173.369-4.03-.094-4.729-.627-.948-2.356.743-4.08 2.53l-.535.555c-1.358 1.411-2.641 2.717-3.299 2.65-.541-.058-.769-.462-.712-1.003.016-.15.054-.352.108-.587-1.007.888-1.834 1.582-2.7 1.582-2.598 0-2.817-3.766-3.482-3.135-.464.44-1.053 1.165-2.916 1.965-2.683 1.152-7.496 1.756-8.641.615-2.65-2.642-1.454-12.064-.515-16.956.422-2.197 4.48-2.003 3.713.18Zm66.466 8.717c-.991.687-1.775 2.703-1.968 3.711-.194 1.008-.192 2.932 1.073 2.758 1.264-.174 2.06-1.285 2.481-2.539.421-1.254.385-2.976.105-3.526-.281-.55-1.161-.77-1.691-.404Zm-10.474.113c-.491 0-1.624.538-1.624 2.271 0 1.357.482 2.001.703 2.276 1.567-.487 2.002-1.789 2.002-2.872 0-.918-.489-1.675-1.081-1.675Zm-45.674-10.43c.921 0 1.601.592 1.677 1.46.109 1.246-.756 2.6-1.943 2.6-1.033 0-1.559-.736-1.626-1.628-.102-1.355.865-2.432 1.892-2.432Zm29.832-.002c.921 0 1.601.593 1.677 1.46.109 1.246-.756 2.6-1.943 2.6-1.033 0-1.559-.736-1.626-1.628-.102-1.354.865-2.432 1.892-2.432Zm-56.615 7.756c1.762.011 2.911.984 2.903 2.222-.005.864-.67 1.613-1.605 1.608-1.983-.012-1.48-1.465-2.304-1.47-1.836-.011-3.271 2.847-4.665 5.878l-.246.537-.238.522-.358.777c-.672 1.446-1.062 1.712-1.611 1.709-1.384-.009-1.685-3.722-2.229-5.339-1.172 2.411-3.396 5.304-7.036 5.282-2.094-.013-4.174-1.103-4.154-4.38.024-3.657 2.461-6.28 4.942-6.265 1.875.012 3.13 1.905 3.122 3.247-.024 3.606-4.879 3.68-4.883 4.435-.005.699 1.262.977 1.977.982 3.09.019 5.188-4.036 5.89-6.797.12-.48.56-1.502 1.443-1.497.994.006.514 6.081 1.893 6.09.828.005 1.976-7.573 7.159-7.54Zm-17.334 3.232c-2.094-.013-1.95 3.319-1.622 4.13 1.545-.26 2.541-1.171 2.823-1.975.282-.808-.042-2.148-1.2-2.155Zm-27.9-7.612c.365 6.499-1.87 9.197-2.997 11.53.182.909 1.75 2.462 3.238 2.471.55.004 1.215-.261 1.383-.478a5.22 5.22 0 0 1-.213-1.56c.025-3.765 2.527-6.924 4.677-6.911 1.709.01 2.687 2.222 2.678 3.677-.012 1.718-1.51 3.11-3.722 4.442.384.375 1.096.652 1.705.656 3.144.02 4.814-3.683 6.054-7.066.224-.645.618-1.555 1.389-1.55 1.323.008 1.82 8.51 4.02 8.523.94.006 1.723-1.874 1.732-3.322.007-1.077-.378-1.188-.368-2.748.011-1.719.959-3.164 2.23-3.156.77.004 1.044.756 1.038 1.668-.023 3.444-2.603 9.83-6.347 9.807-2.817-.018-2.566-4.75-3.557-4.756-1.108-.007-2.682 4.77-8.134 4.737-.886-.006-1.819-.441-2.583-1.309-1.328.855-2.435 1.224-3.703 1.217-2.038-.013-2.909-2.063-3.734-2.068-.994-.006-2.107 2.085-5.418 2.065-2.646-.017-3.065-3.458-4-3.464-.829-.005-2.118 3.426-3.495 3.418-1.126-.007-1.812-1.42-2.454-2.872l-.226-.512c-.6-1.358-1.201-2.609-2.135-2.615-.8-.005-2.471 1.5-4.115 2.989l-.491.444c-1.466 1.323-2.836 2.507-3.453 2.441-.55-.06-.78-.463-.718-1 .082-.743.752-2.732 1.024-3.672l.142-.52.14-.52c.343-1.293.644-2.503.827-2.953.23-.576.846-.983 1.336-.936.248.025.32.475.394.848l.08.38c.262 1.198.611 2.31 1.008 2.313.775.004 3.363-4.768 4.85-4.759 1.823.011 1.992 7.544 4.471 7.56.829.005 1.444-.958 2-2.141.07-1.993.639-4.834 2.292-4.823 1.159.007 1.695 2.536.85 4.738-.016 2.633 1.742 3.29 2.902 3.296.826.006 2.249-.247 3.378-1.987-.63-1.39-1.069-4.192-1.126-5.212-.295-5.217 1.796-10.108 4.05-10.23 1.653-.088 2.966 1.446 3.102 3.92Zm5.248 7.63c-.502-.003-1.659.526-1.67 2.248-.008 1.349.479 1.992.702 2.267 1.598-.475 2.05-1.767 2.058-2.843.006-.91-.489-1.668-1.09-1.672Zm-8.325-8.325c-1.099.058-1.627 3.425-1.426 6.968.128 2.312.478 2.67.807 2.65.608-.031 2.09-4.15 1.902-7.482-.086-1.505-.455-2.186-1.283-2.136Zm-9.36-2.54c.937.006 1.627.598 1.699 1.461.102 1.24-.788 2.58-1.997 2.572-1.053-.007-1.584-.74-1.645-1.627-.096-1.347.896-2.412 1.942-2.405Zm-20.493 2.347c.485 1.725.527 3.98.338 7.208-.245 4.408-2.542 9.721-8.163 9.576-4.852-.134-6.98-3.213-7.172-7.894-.092-2.206.084-4.41 1.041-7.522.507-1.667.954-2.258 2.497-2.568 1.213-.209 1.096 1.026.812 2.481-.624 3.222-.915 4.778-.716 8.438.192 3.874 2.005 5.392 3.99 5.404 2.976.074 4.313-2.338 4.89-5.834.456-2.792.135-4.139-.138-5-.153-.49-.606-1.591-.726-2.403-.264-1.799.706-2.976 1.592-3.243.995-.264 1.379.225 1.755 1.357Z"/>
    <path fill="#1F36C7" d="M210.342 102.606c1.264.414 2.708 1.569 3.061 2.162.501-.177 1.089-.267 1.766-.268.942 0 2.002.176 3.268.561.059-.386.117-.861.706-.861.558 0 .67.39.75.818l.04.216c.034.18.075.357.153.504.148.296.886.474.886 1.067 0 .564-.473.772-.766.773a1.29 1.29 0 0 1-.355-.059c-.587.208-.613 4.474-3.086 4.476-1.825.002-3.503-1.508-4.242-3.402-.207-.563-.647-.919-1.06-.919-.47 0-.735.09-1.293.714-1.587 1.748-4.236 3.26-7.503 3.263-1.002.001-1.796-.086-2.002-.086-.119 0-.119.03-.119.058 0 .209 1.002 1.009 3.18 1.007 5.18-.005 6.446-2.941 7.269-2.942.118 0 .47 0 .676.475 1.21 2.84 3.845 3.49 5.494 3.489.966-.001 1.237-.057 1.453-.091l.098-.015a1.84 1.84 0 0 1 .23-.014c.441 0 .471.266.471.444 0 .653-1.443 1.456-4.001 1.458-1.502.002-2.416-.8-2.682-1.689-1.47.95-3.706 1.812-5.915 1.815-6.033.005-7.566-2.633-9.45-3.488-1.445-.652-3.65.626-6.744-2.84.412.089.973.118 1.414.118 2.706-.003 4.147-1.336 4.145-3.472 0-.267-.03-.56-.059-.826.825.325 2.71 1.744 3.155 4.262.059.296 1.265.562 2.03.561 1.06 0 2.414-.447 2.618-2.194 3.532-.3 5.916-2.405 6.414-5.075Zm5.712 3.937a1.186 1.186 0 0 0 .002 2.372 1.186 1.186 0 0 0-.002-2.372Z">
      <animate attributeName="fill" begin="a.begin+4s" dur="1s" values="#1F36C7;#00D7C4;#1F36C7"/>
    </path>
    <path fill="#1F36C7" d="M231.627 105.044c.681 0 1.627.637 1.629 2.202.002 2.754-4.128 6.15-9.657 6.155-1.708.001-2.626-1.155-2.627-2.316-.001-1.651.914-3.161 1.616-3.975.324-.378.65-.668.945-.669.237 0 .948.493 2.543.492 2.987-.003 4.783-1.307 5.551-1.889Zm-1.772 2.553c-.163 0-1.096.83-3.236.9l-.274.004h-.385c.03.26.06.435.06.668 0 .594-.13 1.212-.315 1.814l-.097.299 3.222-.93c1.057-.667 1.352-1.507 1.351-2.146 0-.523-.177-.609-.326-.609Zm-2.541-5.711c1.7-.001 2.96.448 3.063 1.226l.007.104v.667c0 .32-.054.643-.294.843-.762.64-1.915.96-3.186.96-1.527.002-2.785-.502-2.892-1.029l-.007-.072-.001-1.334c0-.408 1.151-1.363 3.31-1.365Z">
      <animate attributeName="fill" begin="a.begin+4.15s" dur="1s" values="#1F36C7;#001F82;#1F36C7"/>
    </path>
    <path fill="#1F36C7" d="M188.57 95.409c3.61-.003 6.386 3.038 6.39 7.375.002 1.955-1.069 4.856-5.425 4.86-5.162.004-8.3-4.33-8.303-7.144-.003-2.357 1.579-3.85 2.562-4.082-1.039 4.196 1.291 8.33 6.067 8.325 2.388-.002 3.549-1.182 3.547-3.22-.002-2.27-1.585-4.536-4.241-4.534-1.343.002-2.268.75-2.267 1.781.001 1.725 1.466 2.816 2.988 2.815 1.013-.001 1.67-.404 1.67-1.065a.67.67 0 0 0-.09-.345c-.12.058-.358.115-.657.115-1.223.001-2.208-.689-2.209-1.377 0-.547.387-.889.923-.89 1.791 0 3.016 1.777 3.018 3.07 0 1.32-.982 2.47-2.653 2.471-3.552.003-5.046-2.837-5.048-4.735-.002-2.037 1.757-3.418 3.728-3.42Z">
      <animate attributeName="fill" begin="a.begin+4.1s" dur="1s" values="#1F36C7;#EB0000;#1F36C7"/>
    </path>
    <path fill="#1F36C7" d="M207.523 97.568c.55 0 .84.466.9.956.2-.189.374-.27.635-.27a.893.893 0 0 1 .93.9.93.93 0 0 1-.406.74c.348.165.552.412.552.769 0 .439-.347.768-.812.769-.434 0-.696-.495-1.158-.494-.26 0-.551.111-.667.275.175.384.262.765.262 1.121.002 2.14-2.866 3.867-5.85 3.87-2.984.002-4.058-1.75-4.059-2.462 0-.165.116-.248.32-.248.492 0 .608.165 1.94.163 3.188-.002 2.054-4.085 5.038-4.087.406-.001 1.305.273 1.623.82.231-.273.319-.548.319-.795 0-.465-.32-.823-.321-1.258 0-.467.319-.769.754-.769Z">
      <animate attributeName="fill" begin="a.begin+4.05s" dur="1s" values="#1F36C7;#EB0000;#1F36C7"/>
    </path>
    <path fill="#1F36C7" d="M236.905 91.81c2.375-.002 5.018 1.58 5.021 5.15.004 3.8-5.5 8.523-6.322 8.524-.675 0-1.41-.947-1.41-1.58 0-.201.088-.462.675-.692 2.809-1.098 4.418-3.631 4.417-4.927 0-.288-.146-.573-.528-.573-.497 0-2.628 4.779-5.005 4.78-1.644.002-3.318-1.462-3.318-2.154-.001-1.152 4.75-3.286 4.75-4.899-.002-.605-.295-.633-.53-.633-.616 0-4.017 4.465-6.21 4.468-.529 0-.97-.979-.97-1.725 0-.403.262-.69 1.203-.894 5.04-1.128 3.92-4.84 8.227-4.844Zm.911 1.21c-.41 0-.85.318-.849 1.096 0 .86.676 1.408 1.057 1.58.206.115.529.23.849.23.852 0 1.527-.232 1.526-.924 0-.89-1.322-1.984-2.583-1.982Z">
      <animate attributeName="fill" begin="a.begin+4.2s" dur="1s" values="#1F36C7;#9C44C0;#1F36C7"/>
    </path>
    <path fill="#1F36C7" d="M218.834 86.053c1.293 0 2.384.444 2.384 1.01 0 .775-1.913.3-2.06 1.222 1.355.178 1.68.654 1.68 1.042.002.656-.588.863-1.148.864-.412 0-.882-.089-1.383-.088-.648 0-1.294.15-1.823.776.382.06.942.327.943.923.001 1.728-4.737.301-4.733 4.74.002 2.352 2.417 4.912 6.064 4.91 1.885-.002 3.091-.63 3.09-1.345 0-.566-1-.177-1-.655 0-.208.352-.597.351-.925 0-.145-.117-.414-.352-.413-.531 0-1.531.863-3.562.864-1.589.002-3.148-.918-3.15-2.17 0-.267.118-.417.294-.417.177 0 .413.12.618.12.178 0 .207-.12.206-.449 0-.327 0-1.252.557-1.252.56 0 1.62 2.085 5.683 2.08 1.348 0 3.968-.27 4.938-1.166-.026 3.276-2.554 7.596-7.847 7.601-5.5.005-8.446-4.46-8.45-8.57-.004-4.556 3.668-8.697 8.7-8.702Zm-.378 5.72c1.704-.002 2.856 1.098 2.858 2.23 0 .772-.559 1.429-1.385 1.43-.764 0-1.294-.626-1.295-1.338 0-.506.206-.984.206-1.43 0-.299-.09-.597-.384-.893Zm3.905-5.068c3.092.593 4.77 2.944 4.773 5.148.001 1.52-.938 2.918-2.587 2.919-1.502.001-2.586-1.038-2.588-2.707 0-1.25.962-2.561.961-3.843 0-.505-.147-1.011-.56-1.517Zm1.915 2.321c-.236 0-.147.358-.206.745-.029.298-.175.654-.175.893 0 .417.295.745.707.745.471 0 .766-.418.766-.895-.001-.624-.561-1.488-1.092-1.488Zm3.916.831c2.203.147 3.617 1.485 3.619 3.063 0 1.163-.823 2.144-2.03 2.145-1.112.001-1.85-.8-1.85-1.784-.001-.864.557-1.638.556-2.472a1.78 1.78 0 0 0-.295-.952Z">
      <animate attributeName="fill" begin="a.begin+4.3s" dur="1s" values="#1F36C7;#47C8FF;#1F36C7"/>
    </path>
    <path fill="#1F36C7" d="M191.342 91.81c1.432 0 2.485.41 3.45 1.877.879 1.32 1.027 3.522 1.494 3.933.234.206.615.264.878.264.293 0 .556-.03.76-.03 2.104-.002 3.538 2.373 3.54 3.431 0 .97-.846 1.32-1.898 1.32-1.258.002-2.69-.728-3.423-1.55-.555-.587-.849-1.763-1.084-3.2-.235-1.498-1.405-2.76-3.744-3.342-1.872-.469-2.135-.82-2.135-1.32 0-.823 1.14-1.381 2.162-1.382Zm6.67 7.127c-.32 0-.73.236-.729.676 0 .53 1.316 1.47 2.194 1.468.437 0 .583-.265.583-.471-.001-.763-1.316-1.673-2.048-1.673Z">
      <animate attributeName="fill" begin="a.begin+4.25s" dur="1s" values="#1F36C7;#E60067;#1F36C7"/>
    </path>
    <path fill="#1F36C7" d="M180.928 70.22c.389 0 .567.382.568.764 0 .596-.324 1.665-.699 2.786l-.312.921c-.415 1.221-.802 2.368-.801 2.896 0 .176.06.323.208.323.746 0 2.233-3.17 2.708-4.755.268-.823.626-1.263.954-1.264.298 0 .567.323.568.998.001 1.584-1.487 5.313-2.796 7.809-1.011 1.937-2.588 4.724-2.587 6.28 0 .792.149 1.613 1.313 2.61-1.908-.115-2.684-.29-3.4-1.757-3.184 6.254 5.879 5.63 2.782 11.176-.567-.995-5.04-2.019-5.045-7.829-.004-5.017 4.464-7.956 4.462-10.04 0-.409-.148-.761-.536-1.084-.986-.821-1.017-1.495-1.79-1.494-.567 0-1.253 1.292-.536 2.434.24.382.448.617.449.969 0 .82-1.31 3.022-2.232 3.023-.925 0-1.641-2.255-1.645-5.896-.003-3.228.738-6.485 1.663-6.486.268 0 .357.176.358.411 0 .382-.118 1.144-.117 2.434 0 1.38.33 1.498.598 1.498 1.012 0 .798-6.105 2.438-6.106.387 0 .507.381.508.85 0 1.38-.684 3.405-.683 4.52 0 .558.15.734.419.734.716-.001 1.961-6.723 3.183-6.724Z">
      <animate attributeName="fill" begin="a.begin+4.6s" dur="1s" values="#1F36C7;#FFC000;#1F36C7"/>
    </path>
    <path fill="#1F36C7" d="M203.574 85.154c.263 1.486.872 2.259 2.18 2.744 2.583.94 2.933 2.37 2.935 3.887.002 2.575-1.824 5.779-6.526 5.783-3.774.003-6.478-3.311-6.48-6.114 0-.774.202-1.63.696-1.631.436 0 .581.342.929.685 1.308 1.287 2.73 1.627 4.791 1.626 1.859-.002 3.222-.747 3.221-1.52 0-1.286-2.701-1.311-2.703-3.257 0-.486.318-1.315.957-2.203Zm3.054 6.748c-.233 0-.492.457-1.19.772-.995.45-1.392.373-1.391 1.375 0 .372-.087.856-.087 1.113 0 .344.06.545.465.544 1.046 0 2.698-1.746 2.697-3.234 0-.4-.233-.57-.494-.57Zm-6.463-20.242c1.54.828 2.672 2.23 2.673 3.372.002 1.974-2.086 2.89-2.085 4.12.001 1.43 2.236 1.658 2.238 3.43 0 1.457-2.117 3.147-2.115 5.035 0 1.458 1.048 2.657 2.644 2.856-.522.115-.986.201-1.48.202-2.932.002-5.953-2.367-5.956-5.2 0-1.4.608-2.63 1.535-3.517.814.686 1.627 1.142 2.15 1.141.465 0 .668-.228.667-.571 0-1.06-4.27-2.027-4.272-4.287-.001-1.83 4.412-2.806 4.41-5.065 0-.372-.147-1.029-.41-1.516Z">
      <animate attributeName="fill" begin="a.begin+4.35s" dur="1s" values="#1F36C7;#9C44C0;#1F36C7"/>
    </path>
    <path fill="#1F36C7" d="M244.349 84.614c1.462-.001 2.633 1.894 2.635 4.113.002 2.362-1.107 4.93-3.087 6.682-.033-3.938-4.859-2.68-4.86-5.538-.002-1.225.875-2.044 1.928-2.045.936 0 1.667.262 2.194.788a2.584 2.584 0 0 1-.791-1.867c-.001-1.11.7-2.132 1.981-2.133Z">
      <animate attributeName="fill" begin="a.begin+4.4s" dur="1s" values="#1F36C7;#EB0000;#1F36C7"/>
    </path>
    <path fill="#1F36C7" d="M185.417 89.02c.236-.212.59-.363.974-.412.99-.126 1.94.68 2.059 1.768.09 1.058-.627 1.933-1.688 2.14-.109.021-.252.036-.252.036.088.212.146.395.177.695.119 1.118-.617 1.996-1.7 2.141-1.068.144-1.858-.476-2.094-1.442-.236.152-.59.26-.972.303-1.058.122-1.996-.659-2.12-1.69-.141-1.173.79-2.062 1.647-2.194.12-.017.293-.044.293-.044a2.02 2.02 0 0 1-.148-.603c-.103-1.13.573-2.02 1.595-2.196 1.133-.194 1.963.593 2.23 1.497Zm-1.24 1.328-.121.008c-.615.074-1.053.646-.981 1.277.07.63.628 1.081 1.242 1.007.614-.074 1.053-.643.98-1.274a1.133 1.133 0 0 0-1-1.012l-.12-.006Z">
      <animate attributeName="fill" begin="a.begin+4.45s" dur="1s" values="#1F36C7;#F752C7;#1F36C7"/>
    </path>
    <path fill="#1F36C7" d="M230.127 76.303c.445 0 1.07 1.452 1.367 1.452.475 0 1.127-1.187 1.573-1.187.147 0 .207.089.208.356 0 1.095-.562 2.34-.561 3.41 0 .74.24 1.6.981 1.599.624 0 1.158-.948 1.157-1.987-.001-1.186-.21-2.105-.21-2.58 0-.207.088-.295.207-.295.446.029.862 1.244 1.338 1.243.535 0 1.33-.98 1.655-.98.09 0 .119.118.119.147 0 .446-.682 1.426-.681 1.81 0 .326 1.723.384 1.723.68 0 .446-1.805.448-2.665.834-.831.356-1.337.801-1.336 1.394 0 .594.595.71 1.427.71 1.227-.001 2.229-.41 2.92-.723l.295-.135c.274-.125.478-.212.605-.212.09 0 .148.059.149.148 0 .297-1.008 1.275-1.008 1.72 0 .504 1.843 1.094 1.813 1.391-.03.089-.149.119-.356.119-.328 0-.831-.088-1.218-.088-.237 0-.445.03-.535.148-.205.239.061 1.81-.352 1.81-.386 0-1.4-3.497-3.679-3.495-.327 0-.563.267-.563.713 0 1.184 1.16 2.547 2.26 3.198.498.327 1.33.652 1.33.83 0 .355-1.894.032-1.894.624.001.534.24 1.336.24 1.808 0 .149-.03.326-.208.326-.356 0-1.22-1.628-1.635-1.628-.148 0-.369.17-.599.368l-.277.242c-.229.199-.442.368-.58.369-.087 0-.146-.089-.147-.177 0-.682 1.097-2.225 1.096-3.737 0-.712-.091-2.253-.954-2.252-.711 0-1.513 1.127-1.868 2.255-.078.244-.105.752-.134 1.29l-.02.361c-.046.782-.12 1.521-.378 1.522-.445 0-.328-1.69-.922-1.69-.438.001-1.388.801-1.715.802-.06 0-.119-.03-.119-.089 0-.355.86-1.513.86-1.75 0-.444-1.96-.5-1.96-.857 0-.209.771-.357 1.483-.477 1.509-.268 3.735-1.366 3.734-2.907-.002-1.72-1.666-2.46-2.759-3.171-.565-.356-1.188-.65-1.189-.887 0-.238.714-.239 1.01-.239.445 0 .885-.03.884-.386 0-.268-.06-.8-.061-1.215 0-.297.03-.535.149-.535Zm-11.574-4.643c.146 1.111.885 1.483 1.667 1.815l.314.131c.887.378 1.734.821 1.736 2.348 0 .445-.118 1.098-.118 1.66 0 .654.06 1.217.56 1.216.503 0 .623-.355.622-.83 0-.476-.12-1.068-.12-1.394-.002-1.038.74-1.275 1.187-1.275 1.128-.001 1.99 1.154 3.683 1.152-.161.796-.944 1.17-1.8 1.49l-.596.216c-.99.361-1.908.762-1.907 1.767.001 1.039 1.04 1.273 1.724 1.273.624 0 .832-.09.831-.622 0-.297-.06-.623-.06-.831 0-.119.09-.238.238-.238.653 0 3.855 2.428 3.856 3.17 0 .68-3.378 1.366-4.358 1.366-.296 0-.356-.207-.356-.325 0-.207.503-.83.503-1.186 0-.267-.445-.444-1.634-.443-.564 0-.98.06-.98.506.001.798 1.31 1.776 1.31 2.517.001.593-.355.95-1.306.95-.802 0-2.014-.622-2.015-1.659 0-.83.854-1.66.854-2.164 0-.149-.113-.385-.47-.385-1.099 0-1.393 2.905-5.281 3.235.623-.563 1.156-1.186 1.155-2.46 0-.623-.148-1.128-.15-1.808 0-.89.414-1.336 1.008-1.337 1.097 0 1.632 1.54 2.347 1.54.387 0 .801-.355.8-.89-.001-2.253-4.335-1.923-4.338-5.095 0-.86.294-1.927 1.094-3.41Z">
      <animate attributeName="fill" begin="a.begin+4.5s" dur="1s" values="#1F36C7;#00D7C4;#1F36C7"/>
    </path>
    <path fill="#1F36C7" d="M188.994 71.66c-.614 1.058-.759 2.438-.758 3.29.005 4.995 5.999 9.66 6.002 12.744 0 1.263-.903 2.676-2.568 2.677a2.193 2.193 0 0 1-2.252-2.143c0-.764.526-1.353.7-1.353.087 0 .116.059.116.264 0 .412.323.941.996.94.614 0 1.021-.442 1.02-1-.001-2.437-4.943-6.693-4.948-12.539-.263.647-.584 1.469-.583 2.704.003 2.82 2.05 5.757 2.053 8.399.001 1.087-.844 2.057-1.897 2.058-1.227 0-1.666-.967-1.667-1.584 0-.412.175-.794.292-.794.146 0 .088.617.76.616.7 0 .964-.5.963-1.41-.002-2.438-1.406-4.17-1.408-6.698 0-.38 0-.792.086-1.174-.76.912-.846 2.204-.845 3.35l.003 2.997c.002 2.024-1.02 2.937-2.248 2.939-.788 0-1.578-.617-1.58-1.703 0-.147.088-.675.264-.676.234 0 .41.616 1.082.616 1.286-.001 1.372-1.263 1.37-3.79-.002-2.908 1.192-6.23 5.047-8.73Z">
      <animate attributeName="fill" begin="a.begin+4.55s" dur="1s" values="#1F36C7;#CF98D9;#1F36C7"/>
    </path>
    <path fill="#1F36C7" d="M230.423 60.145c.145 0 .758.768 2.739.766 1.02 0 1.951-.267 3.437-.269 3.487-.003 5.034 2.448 7.193 5.574 1.305.825 4.423 2.152 4.426 5.902.003 3.307-3.462 5.142-4.297 8.685.571-.063 1.042-.544 1.501-1.074l.305-.356c.51-.592 1.03-1.142 1.68-1.142.7-.001 1.021.56 1.022 1.447.001 1.299-.726 3.249-2.123 4.46.03-.118.03-.266.03-.443-.002-.827-.323-2.006-1.256-2.005-1.45.001-1.914 1.595-2.729 2.924-.847-3.01-1.986-5.727-4.024-7.378-2.063-1.681-5.617-.764-5.62-3.834 0-.828.523-2.009.522-2.954 0-.324-.059-.62-.235-.856 2.799 1.062 1.81 2.95 3.531 4.898 1.072 1.24 4.043 2.419 5.766 7.525.029-.147.057-.53.057-.796-.004-4.37-5.709-8.648-6.205-10.42 3.312.381 3.895 1.209 5.473 5.635.32.917 1.372 3.19 1.373 4.311.465-1.476 1.047-2.511 2-4.106l-.237-.12-.43-.217c-1.14-.58-2.824-1.548-2.825-2.967-.002-2.038 2.5-3.635 3.02-3.635.232 0 .291.206.292.59 0 1.063-.493 2.776-.493 3.692.001.826.527 1.624.992 1.623.496 0 1.863-1.773 1.861-3.516-.003-3.13-2.712-4.072-3.55-4.071-.787 0-2.213 1.3-5.562 1.303-6.256.006-7.69-6.28-7.692-9.028 0-.118.029-.148.058-.148Zm6.696 2.091c-.117 0-.256.089-.256.444 0 .325.06.532.06.914 0 .385-.088.65-.437.65-.786.002-1.487-1.858-2.157-1.857-.146 0-.291.089-.29.236 0 .355.582 1.003.582 1.328 0 .316-.373.415-.789.48l-.314.045c-.415.06-.79.13-.789.393 0 .266.261.353.611.353.613 0 1.574-.266 2.069-.266.291 0 .729.058.729.44 0 .414-1.048.946-1.048 1.33 0 .178.176.264.32.264.787 0 2.178-1.388 3.168-1.389.175 0 .61.088.61.354.001.383-.987 1.063-.987 1.624 0 .148.089.325.263.325.522 0 1.22-1.388 2.21-1.39.38 0 .933.147 1.225.147.233 0 .32-.148.32-.237 0-.62-1.546-.677-1.692-2.42-.03-.265-.117-.736-.439-.736-.523 0-.114 1.624-.697 1.624-1.338.002-1.777-2.656-2.272-2.656Z">
      <animate attributeName="fill" begin="a.begin+4.65s" dur="1s" values="#1F36C7;#00D7C4;#1F36C7"/>
    </path>
    <path fill="#1F36C7" d="M194.622 63.744c.71 0 2.039 1.237 2.395 2.503-.148-.028-.296-.057-.444-.057-.945 0-1.474.922-2.241 2.477 1.71-1.126 3.304-2.047 5.105-2.049 1.535 0 2.747.918 2.749 2.33 0 .603-.295 1.266-.678 1.84-.238-1.294-1.33-1.867-3.22-1.866-1.092.001-2.392.202-3.424.578 3.337.458 3.84 1.638 3.84 2.703.002 1.814-1.857 2.707-3.097 3.314a7.38 7.38 0 0 0 .205-1.641c0-1.095-.414-2.332-2.1-3.539-.263 1.18-1.206 1.9-1.206 2.82 0 .347.236.461.413.461 0 .519-.234 1.987-.234 2.362 0 .776.178.92.562 1.006.238.662.246 1.773.408 2.368.094.34.361.424.569.424.236.575.533 1.439 1.095 1.84.116.086.264.288.264.46 0 .519-.795 1.096-1.297 1.097-.148 0-.403-.09-.63-.62-.186-.437-1.615-1.307-1.704-1.826.088-.087.147-.26.147-.46 0-.806-1.3-1.727-1.301-2.992.147-.058.295-.29.295-.549-.001-.718-.77-2.13-.771-3.078.324 0 .502-.03.53-.49.059-.95.264-2.362 1.178-3.167a5.74 5.74 0 0 0-.826-.057c-1.771 0-4.516 1.01-5.547 3.257a5.694 5.694 0 0 1-.09-.949c-.002-1.872 1.148-3.111 2.005-3.485.442-.202.973-.26 1.565-.26.943-.001 2.066.2 3.217.4-1.004-1.295-2.54-2.244-3.81-2.242-.59 0-1.063.202-1.21.69a5.315 5.315 0 0 1-.09-.978c0-1.409.472-2.216 1.711-2.217 1.83-.002 3.397 2.128 4.343 4.112-.002-3.02.055-4.519 1.324-4.52Z">
      <animate attributeName="fill" begin="a.begin+4.75s" dur="1s" values="#1F36C7;#00D7C4;#1F36C7"/>
    </path>
    <path fill="#1F36C7" d="M229.822 73.107c.649 0 1.15.48 1.151 1.046 0 .65-.5 1.105-1.15 1.105a1.103 1.103 0 0 1-1.114-1.104c0-.565.53-1.047 1.113-1.047Zm-3.71-2.007c1.12 0 2.035.877 2.036 1.951 0 1.075-.913 1.954-2.033 1.955-1.12.001-2.035-.876-2.036-1.951-.001-1.075.911-1.954 2.032-1.955Zm-3.63-.902c.649 0 1.18.508 1.181 1.131 0 .623-.53 1.132-1.179 1.132-.642 0-1.173-.507-1.174-1.13 0-.623.53-1.132 1.172-1.133Zm7.219-.884c.766 0 1.386.594 1.387 1.328 0 .737-.618 1.332-1.385 1.333-.76.001-1.38-.593-1.381-1.33 0-.735.618-1.33 1.379-1.33Zm-10.664-1.49c.913-.002 1.68.734 1.681 1.61 0 .88-.765 1.614-1.678 1.615-.914.001-1.68-.733-1.68-1.611-.002-.877.763-1.614 1.677-1.615Zm7.307.106c.648 0 1.179.509 1.18 1.131 0 .623-.53 1.134-1.178 1.134-.65 0-1.18-.509-1.18-1.132-.001-.622.529-1.132 1.178-1.133Zm-3.483-2.034c1.003 0 1.801.762 1.802 1.724.001.964-.796 1.727-1.798 1.728-.996 0-1.793-.761-1.794-1.725-.001-.961.795-1.726 1.79-1.727Zm3.36-3.002c1.032-.001 1.888.818 1.889 1.81 0 .99-.853 1.81-1.886 1.811-1.031.001-1.887-.819-1.888-1.808-.001-.992.853-1.812 1.885-1.813Zm-3.893-.025c.62 0 1.122.48 1.122 1.073 0 .596-.5 1.078-1.12 1.078-.613 0-1.114-.48-1.114-1.076-.001-.593.5-1.075 1.112-1.075Zm7.133 3.021c.678 0 1.24.537 1.24 1.186 0 .653-.56 1.191-1.238 1.192-.67 0-1.233-.537-1.233-1.19 0-.65.56-1.187 1.23-1.188Zm-9.928-1.576c.65 0 1.18.51 1.181 1.13.001.623-.529 1.134-1.179 1.134-.646.001-1.178-.509-1.179-1.13 0-.623.53-1.134 1.177-1.134Zm8.13-4.169c.62 0 1.122.482 1.123 1.076 0 .593-.502 1.076-1.12 1.076-.62 0-1.121-.48-1.122-1.074 0-.594.5-1.077 1.12-1.078Z">
      <animate attributeName="fill" begin="a.begin+4.7s" dur="1s" values="#1F36C7;#FFA91F;#1F36C7"/>
    </path>
    <path fill="#1F36C7" d="M171.838 68.397c.917 1.34 1.77 1.747 2.868 1.746.822 0 1.737-.176 2.926-.44-1.553 1.284-2.864 1.956-3.839 1.957-1.25.001-1.952-1.049-1.955-3.263Zm8.535-3.012c-.122.35-.213.73-.213 1.342.001.875.307 1.75 1.161 2.535-.244.176-.639.292-1.188.293-1.069.001-1.922-.67-1.923-1.719-.001-1.457 1.46-2.275 2.163-2.45Zm2.528-2.421c1.526.435 3.386 1.805 3.389 3.758 0 1.253-.7 2.478-2.194 2.48-1.555 0-2.563-1.31-2.564-2.884-.002-1.311.699-2.596 1.369-3.354Zm-9.997 2.836c.732.962 1.951 1.25 3.08 1.25.365 0 .762-.03 1.096-.088-.79.963-1.676 1.402-2.437 1.403-1.006 0-1.768-.757-1.769-2.128 0-.145 0-.29.03-.437Zm6.089-7.557c.243 0 .487.01.67.028.55.058.988.067 1.129.204.248.237.1.687.49 1.194.388.51.854.437.855.992 0 .438-.852 3.033-3.046 4.086-1.036.494-1.86.7-2.56.7-1.19.001-2.013-.493-2.744-.492-.123 0-.275.059-.52.059-.272 0-.578-.291-.578-.554a.61.61 0 0 1 .091-.321c.425-.672.033-3.343 2.677-4.96 1.338-.816 2.53-.935 3.536-.936Zm-3.169 2.248c-.335 0-.791.73-.79 1.313 0 1.08 1.099 2.274 2.104 2.273.55 0 1.13-.293 1.129-.498 0-.058-.06-.087-.153-.145-.915-.406-1.892-1.223-2.076-2.65-.031-.205-.092-.293-.214-.293Zm3.048-1.255c-.457 0-.792.058-.791.611 0 .876.855 2.42 1.923 2.42.488 0 .731-.527.731-.934 0-.102-.146-.237-.318-.382l-.211-.176a1.865 1.865 0 0 1-.265-.258c-.337-.438-.337-1.02-.611-1.165a.758.758 0 0 0-.458-.116Zm5.398-.385c.67 0 1.22.524 1.22 1.165 0 .642-.548 1.168-1.218 1.168-.671.001-1.221-.524-1.222-1.166 0-.64.548-1.166 1.22-1.167Zm-1.59-2.624c.672 0 1.221.525 1.222 1.167 0 .64-.548 1.166-1.22 1.167-.67 0-1.219-.525-1.22-1.165 0-.642.548-1.168 1.218-1.169Zm-9.026-2.76c-.031.175-.031.32-.03.495 0 1.662.978 2.915 2.747 3.41l-.036.024c-.175.117-.977.616-1.946.617-1.309.001-2.348-.93-2.35-2.242 0-.904.487-1.837 1.615-2.305Zm3.594-1.958c2.074-.001 2.748 2.127 2.749 3.526 0 .642-.121 1.224-.273 1.692-2.104.001-4.515-.93-4.517-3.233 0-1.08.853-1.984 2.041-1.985Z">
      <animate attributeName="fill" begin="a.begin+4.8s" dur="1s" values="#1F36C7;#FFE300;#1F36C7"/>
    </path>
    <path fill="#1F36C7" d="M246.985 55.933c.8.282.718 1.496.72 3.046v.24c-.014 2.664-.291 5.901-.989 5.963-1.076.086-5.049-3.52-5.411-6.197 1.078.111 4.411-.427 5.68-3.052Zm-1.55-4.424c1.13.14 1.574.93 1.575 1.888.002 2.058-2.62 4.4-5.486 4.403-1.075.001-1.821-.336-1.822-1.126 0-.339.276-.986 1.186-.987 2.514-.002 4.824-1.724 4.823-3.276 0-.45-.083-.648-.277-.902Zm-1.705.058c.6 0 .794.395.794.788.001 1.242-2.449 2.259-3.609 2.26-.386 0-.938 0-1.243-.618-.25-.508-.167-1.326-.636-1.692.47.14.966.14 1.352.139 1.244-.001 2.43-.876 3.342-.877Z">
      <animate attributeName="fill" begin="a.begin+4.85s" dur="1s" values="#1F36C7;#F752C7;#1F36C7"/>
    </path>
    <path fill="#1F36C7" d="M193.028 52.949c2.256-.002 3.456 2.028 3.458 4.292 0 .318-.029.666-.086.986.97-1.626 2.31-2.874 3.766-2.876 1.883-.002 2.74 1.651 2.742 3.509.001.81-.225 2.002-.596 2.003-.372 0-.315-.668-.373-1.278-.057-.783-.2-.957-.458-.957-.485 0-.797 1.162-.796 2.236 0 .666.115 1.421.628 1.42.285 0 .542-.145.714-.32-.113 1.335-1.084 2.498-2.453 2.5-2.511.002-3.456-2.987-3.743-4.728-1.51 1.626-2.907 2.818-5.42 2.82-2.339.002-3.398-1.738-3.399-3.391 0-.494.17-1.77.77-1.77.712-.002.088 2.377 1.486 2.376.343 0 .97-.292 1.311-1.248.2-.581.314-1.19.313-1.713 0-.784-.173-1.276-.742-1.275-.487 0-1.086.377-1.285.58.684-2.09 2.338-3.165 4.163-3.166Zm6.968 4.288c-.6 0-1.595 2.874-1.594 4.44 0 .61.144.872.315.872.713-.001 1.51-2.788 1.508-4.529 0-.378-.058-.783-.23-.783Zm-6.48-2.925c-.885 0-2.107 5.08-2.106 6.212 0 .203.057.436.314.435.97 0 2.077-5.34 2.076-6.24 0-.233-.085-.407-.285-.407Zm4.226 3.856c-.286 0-.598.349-1.055 1.133.059 1.044.23 1.509.515 1.508.313 0 .77-1.017.769-2.032-.001-.494-.115-.61-.23-.61Zm-2.74-1.768c-.858 0-1.283 2.323-1.282 2.933 0 .346.17.637.341.637.314 0 .714-.35 1.456-1.19.057-.378.057-.727.056-1.163 0-.579-.23-1.217-.572-1.217Z">
      <animate attributeName="fill" begin="a.begin+4.95s" dur="1s" values="#1F36C7;#E60067;#1F36C7"/>
    </path>
    <path fill="#1F36C7" d="M225.49 55.339c.34.47.54 1.444.54 1.886.003 3.214-2.259 4.454-4.344 4.456-1.358.001-2.038-.47-2.208-.47-.535 0-.506 1.122-.873 1.093-.65-.117-1.244-1.62-1.246-3.213 0-.944.225-1.947.731-2.684.736.736 1.385 1.06 2.177 1.059.312 0 .68-.089.878-.089.254 0 .424.117.424.323 0 .325-.282.856-.621 1.152.339.147.707.206 1.103.206 1.605-.002 3.442-1.067 3.44-3.72Zm-4.152-3.83c1.803-.001 2.51 1 2.765 1 .282 0 .565-.296.792-.297.31 0 .31.502.311.857 0 1.178-.506 3.213-1.778 3.952a2.937 2.937 0 0 0-1.41-1.414.468.468 0 0 1-.282-.441c0-.325.282-.74.616-.917-.226-.383-1.07-.587-1.464-.586-1.246 0-2.092.915-2.261 1.741a2.883 2.883 0 0 1-.2-1.003c0-1.296.846-2.89 2.91-2.892Z">
      <animate attributeName="fill" begin="a.begin+4.9s" dur="1s" values="#1F36C7;#47C8FF;#1F36C7"/>
    </path>
    <path fill="#1F36C7" d="M232.422 51.51c.436-.001.632.23.792.489l.132.224c.154.26.33.49.729.49.71-.002 1.622-.635 2.164-.636.847 0 2.073 2.83 2.075 4.155 0 1.536-2.184 2.471-4.775 2.474-3.78.004-6.062-3.487-6.064-5.747 0-.18.086-.24.17-.3.362-.257 1.965.148 4.038-.94a1.48 1.48 0 0 1 .739-.21Zm-1.877 2.832c-.114 0-.17.06-.17.15 0 .784 1.368 1.987 3.475 1.985 1.253-.001 2.192-.605 2.192-.967 0-.118-.172-.21-.542-.209-.37 0-1.11-.029-2.506-.268-1.196-.21-2.107-.691-2.449-.691Z">
      <animate attributeName="fill" begin="a.begin+5s" dur="1s" values="#1F36C7;#EB0000;#1F36C7"/>
    </path>
    <path fill="#1F36C7" d="M180.652 38.345c.001.968-3.185 1.94-3.184 2.88 0 .521.973.657 2.01.753l.447.04c1.037.09 2.01.19 2.01.643 0 .46-.69 1.185-1.433 1.9l-.373.356c-.744.705-1.434 1.356-1.434 1.681 0 .118.15.176.268.176.773 0 2.796-1.47 3.72-1.472.355 0 .475.235.475.647.001.822-.503 2.202-.502 3.053 0 .206.06.441.297.44.655 0 1.696-2.79 2.617-2.792.374 0 .432.844.459 1.775l.012.433c.026 1.013.07 1.992.487 1.991.742 0 .888-3.818 1.663-3.819.743 0 1.102 2.143 1.877 2.142.3 0 .349-.35.354-.935l.001-.151-.001-.999c0-.646.029-1.086.356-1.086.894 0 3.424 2.932 3.96 2.931.12 0 .15-.117.15-.206 0-.791-1.7-3.462-1.702-4.87 0-.472.179-.795.655-.795 1.041-.002 3.245 1.202 4.256 1.201.328 0 .537-.118.536-.442 0-1.203-3.634-3.638-3.635-4.637 0-.97 4.046-1.971 6.813-1.973.358 0 1.073-.001 1.073.38 0 .392-.985.756-2.027 1.141l-.418.155c-.763.288-1.49.59-1.815.928-.109.113-.178.239-.173.365.054 1.38 4.887 4.576 4.889 6.339 0 .382-.328.675-.864.676-1.607.001-5.002-1.581-6.163-1.58-.328 0-.416.089-.415.382 0 .536.508 1.625 1.037 2.786l.263.584c.478 1.073.905 2.138.906 2.823 0 .412-.148.735-.563.736-1.34.001-4.32-3.52-5.36-3.52-.437 0-.585.624-.704 1.299l-.063.37c-.117.675-.25 1.298-.66 1.298-.312 0-.607-.325-.906-.692l-.257-.317c-.302-.367-.613-.692-.952-.692-.773 0-1.274 5.875-2.493 5.876-1.43.001-.87-5.432-1.821-5.432-.745 0-1.755 1.852-2.856 1.853-.595 0-.774-.47-.774-1.144-.001-.852.266-2.026.265-2.79 0-.412-.03-.881-.418-.88-1.103 0-5.116 2.91-6.664 2.912-.326 0-.565-.147-.565-.47-.002-1.439 5.082-5.76 5.082-6.757 0-.43-1.292-.473-2.66-.491l-.514-.006c-1.368-.017-2.66-.053-2.66-.468-.001-.998 4.135-2.734 4.134-3.381 0-.675-3.99-.906-3.99-1.67 0-.5.951-.705 2.708-.707 1.458-.001 5.239.376 5.24 1.229Zm17.538 9.322c.834 0 4.617 2.933 5.154 3.667.118.176.177.411.178.644 0 .883-.444 1.91-1.04 1.911-.715 0-4.44-5.018-4.44-6.045 0-.088.058-.177.148-.177Zm-22.92-3.15c.416 0 .892.086.892.321.001.588-2.258 2.557-3.061 2.557-.297 0-.387-.35-.388-.674 0-.586.267-1.41.594-1.675.386-.352 1.279-.528 1.964-.529Zm9.577-7.205c1.964-.002 1.58 1.645 3.128 1.643 1.488-.001 1.218-1.588 3.152-1.59 1.22-.001 2.113.175 2.114.351 0 .411-1.457.413-1.456 1.324 0 .91 2.648 1.671 2.649 2.375 0 .206-.178.265-.357.265-.505 0-1.428-.41-2.112-.41-.476.001-.833.236-.833.736 0 .822.895 2.085.896 2.7 0 .206-.148.353-.327.353-.715.001-1.49-2.26-2.533-2.259-1.28.001-.89 3.262-1.783 3.262-.862.001.176-3.318-1.401-3.317-.953.001-1.963 1.5-2.56 1.501-.148 0-.297-.059-.297-.236 0-.587 1.606-1.91 1.606-2.645 0-.382-.388-.469-.805-.468-.744 0-1.785.295-2.44.295-.299 0-.535-.088-.535-.292-.001-.617 3.004-.914 3.003-1.941 0-.97-1.399-.822-1.4-1.175 0-.264 1.1-.47 2.291-.472Zm18.784 3.684c0 .705-.148 1.382-.653 1.382-.863 0-2.74-1.144-2.74-1.672 0-.352 1.25-.618 2.231-.619.775 0 1.161.029 1.162.909Z">
      <animate attributeName="fill" begin="a.begin+5.15s" dur="1s" values="#1F36C7;#FFE300;#1F36C7"/>
    </path>
    <path fill="#1F36C7" d="M245.063 37.836c.977-.001 1.207.434 2.644.432-.776.468-1.062 1.313-1.061 1.719 0 1.223.777 2.065.78 4.568.004 4.596-4.24 6.23-9.437 6.235a29.39 29.39 0 0 1-4.447-.344c-.229-.029-.286-.087-.286-.233-.001-.379 2.039-.584 2.037-2.446 0-.728-.232-1.425-.232-1.687a.23.23 0 0 1 .23-.234c.43 0 1.295 1.687 2.897 1.686.427 0 1.49-.147 1.49-1.486-.002-2.066-4.878-2.586-4.878-3.05 0-.379 2.722-1.022 4.127-1.052-2.154-2.791-5.221-2.498-5.221-2.992 0-.292 2.295-.877 4.416-.878 1.778-.002 3.444.404 3.445 1.772.001.757-.601 1.544-.6 2.707 0 .64.315 1.193 1.15 1.192.89 0 1.09-.96 1.09-1.98-.001-.843-.146-1.484-.146-1.892-.001-1.221.825-2.036 2.002-2.037Zm-.54 5.268c.002 2.589-1.857 4.569-5.218 5.125.374.028.72.028 1.064.027 3.928-.003 5.363-1.808 5.362-3.32 0-.845-.461-1.6-1.208-1.832Zm.541-4.221a.716.716 0 0 0-.716.729c0 .406.316.726.718.725.402 0 .718-.32.718-.726a.717.717 0 0 0-.72-.728Z">
      <animate attributeName="fill" begin="a.begin+5.05s" dur="1s" values="#1F36C7;#00D7C4;#1F36C7"/>
    </path>
    <path fill="#1F36C7" d="M221.563 37.153c.358 0 1.074 1.156 1.543 1.127.774 0 2.233-.957 4.226-.959 4.191-.004 7.23 2.455 7.234 6.653.004 4.341-3.387 6.806-6.983 6.81-2.53.001-4.05-1.532-4.615-1.532-.382 0-.944 1.333-1.301 1.333-.15 0-.21-.028-.269-.376-.09-.665-.181-1.795-.659-1.795-.417 0-2.11 1.885-2.675 1.885-.118 0-.148 0-.148-.145 0-.578 1.484-2.606 1.483-3.214 0-.607-2.022-.259-2.023-.75 0-.609 2.022-1.248 2.02-2.058 0-.81-1.933-.925-1.934-1.561 0-.348 1.813-.842 1.813-1.364 0-.52-1.846-2.545-1.846-3.212 0-.385.786.002 1.63.447l.317.169c.634.336 1.248.655 1.535.655.357 0 .356-1.013.356-1.332 0-.493.148-.78.296-.78Zm5.741 1.53c-1.816 0-2.976.725-2.976 1.391 0 .406.358.463.656.463.318 0 .872-.157 1.361-.304l.35-.105.131-.039c.211-.061.375-.104.45-.104.207 0 .327.057.327.202 0 .32-.625 1.014-.624 1.42 0 .55 3.269.141 3.27.721 0 .549-2.405 1.073-2.405 1.42 0 .377 1.936 1.62 1.937 2.257 0 .117-.058.233-.266.233-.626 0-1.817-.317-2.62-.317-.179 0-.268.087-.268.203 0 .433.507 1.3.507 1.823 0 .174-.089.23-.208.23-.477 0-1.906-.981-2.56-.98-.24 0-.417.173-.417.433 0 .523 1.37 1.534 3.454 1.532 1.607-.001 4.607-1.045 4.603-5.214-.003-3.3-1.761-5.268-4.702-5.266Zm-4.641 2.117c-.292 0-.35 1.622-.737 1.622-.447 0-1.013-.115-1.34-.114-.09 0-.15.029-.15.087 0 .347 1.164.953 1.164 1.272 0 .087-.219.285-.469.502l-.253.22c-.25.218-.47.424-.47.523 0 .058.06.087.21.087.208 0 .894.028 1.251.028.125 0 .186.08.203.174l.005.058.062 1.157.005.07c.015.11.068.191.143.191.268 0 .796-1.188 1.124-1.188.107 0 .32.065.55.143l.35.12c.229.077.434.142.53.142.058 0 .088-.03.088-.087 0-.261-.626-1.072-.626-1.273 0-.26 1.697-.233 1.697-.523 0-.102-.32-.22-.68-.342l-.31-.105c-.36-.124-.679-.249-.679-.363 0-.232.744-1.013.743-1.216 0-.058-.059-.087-.118-.087-.299 0-1.012.436-1.398.436-.33 0-.688-1.534-.895-1.534Z">
      <animate attributeName="fill" begin="a.begin+5.1s" dur="1.5s" values="#1F36C7;#FCA6DE;#1F36C7"/>
    </path>
  </g>
</svg>
